<?xml version="1.0" standalone="no"?>
<!DOCTYPE svg PUBLIC "-//W3C//DTD SVG 20010904//EN"
 "http://www.w3.org/TR/2001/REC-SVG-20010904/DTD/svg10.dtd">
<svg version="1.0" xmlns="http://www.w3.org/2000/svg"
 width="846.000000pt" height="846.000000pt" viewBox="0 0 846.000000 846.000000"
 preserveAspectRatio="xMidYMid meet">
<metadata>
Created by potrace 1.11, written by Peter Selinger 2001-2013
</metadata>
<g transform="translate(0.000000,846.000000) scale(0.100000,-0.100000)"
fill="#000000" stroke="none">
<path d="M3920 8300 c-9 -6 -10 -10 -3 -10 6 0 15 5 18 10 8 12 4 12 -15 0z"/>
<path d="M4195 8261 c-3 -5 -2 -12 3 -15 5 -3 9 1 9 9 0 17 -3 19 -12 6z"/>
<path d="M4253 8255 c0 -8 4 -12 9 -9 5 3 6 10 3 15 -9 13 -12 11 -12 -6z"/>
<path d="M3895 8239 c-3 -4 2 -6 10 -5 21 3 28 13 10 13 -9 0 -18 -4 -20 -8z"/>
<path d="M4460 8241 c0 -5 -9 -11 -20 -14 -11 -3 -18 -2 -16 1 5 8 -374 5
-382 -2 -2 -3 -14 -1 -25 5 -14 8 -17 8 -13 0 4 -6 -7 -10 -31 -9 -21 0 -40
-1 -43 -2 -19 -7 -70 -5 -70 4 0 7 -3 7 -8 0 -4 -7 -32 -14 -62 -17 -30 -3
-76 -9 -102 -13 -34 -5 -53 -3 -65 7 -17 13 -17 13 -4 -4 13 -16 13 -18 0 -16
-7 2 -38 -3 -67 -9 -67 -15 -75 -15 -67 1 4 6 0 5 -7 -5 -18 -22 -74 -28 -70
-8 2 8 0 11 -5 7 -4 -5 -9 -13 -9 -18 -1 -5 -2 -12 -3 -15 0 -4 -8 -1 -16 6
-8 7 -15 8 -15 2 0 -19 -44 -22 -64 -4 -20 16 -20 16 -7 0 15 -20 7 -26 -40
-32 -13 -2 -31 -6 -39 -9 -50 -17 -139 -40 -162 -41 -14 -1 -24 -4 -22 -7 8
-13 -29 -19 -42 -8 -12 10 -13 9 -8 -5 4 -9 3 -16 -2 -15 -5 1 -12 0 -16 -1
-5 -1 -11 -3 -15 -5 -15 -4 -48 -17 -70 -27 -11 -6 -26 -7 -32 -4 -6 4 -14 1
-17 -7 -3 -9 -16 -14 -29 -12 -14 1 -22 -1 -20 -5 5 -8 -84 -46 -97 -42 -5 1
-8 -2 -8 -8 0 -6 -3 -9 -7 -8 -5 1 -44 -15 -88 -36 -44 -21 -88 -38 -97 -39
-9 -1 -16 -4 -15 -7 1 -3 -2 -7 -8 -9 -5 -2 -27 -15 -48 -28 -21 -13 -43 -21
-49 -17 -7 4 -8 3 -4 -4 6 -11 -6 -16 -27 -13 -4 0 -7 -3 -7 -9 0 -5 -5 -10
-11 -10 -6 0 -17 -7 -26 -15 -8 -8 -18 -13 -23 -10 -4 3 -11 -2 -14 -11 -3 -8
-10 -12 -16 -9 -5 3 -10 1 -10 -5 0 -6 -4 -8 -10 -5 -6 3 -10 1 -10 -5 0 -7
-7 -9 -16 -6 -8 3 -13 2 -10 -2 4 -7 -39 -39 -61 -45 -4 -1 -18 -12 -32 -24
-25 -24 -47 -31 -35 -11 4 7 3 8 -5 4 -6 -4 -9 -11 -6 -16 3 -4 -11 -19 -32
-31 -43 -27 -194 -140 -225 -169 -24 -22 -44 -27 -32 -8 4 7 3 8 -4 4 -6 -4
-8 -14 -5 -24 3 -9 3 -14 -2 -10 -4 4 -16 -2 -26 -14 -11 -11 -19 -17 -19 -12
0 5 -5 1 -11 -9 -6 -9 -15 -15 -20 -11 -5 3 -8 1 -7 -5 4 -14 -72 -82 -84 -75
-5 3 -7 1 -6 -4 5 -14 -92 -103 -104 -96 -6 4 -8 2 -5 -3 4 -6 -29 -47 -73
-93 -44 -45 -80 -86 -80 -91 0 -9 -15 -13 -33 -10 -5 1 -6 -3 -2 -9 3 -6 -5
-23 -19 -38 -14 -15 -34 -38 -46 -52 -12 -14 -18 -18 -14 -10 4 9 3 12 -2 7
-5 -5 -9 -12 -9 -17 0 -14 -47 -70 -55 -65 -4 3 -7 -3 -6 -13 0 -9 -4 -16 -10
-15 -6 1 -11 -3 -11 -10 0 -21 -85 -127 -97 -120 -6 3 -8 3 -4 -2 11 -11 -21
-67 -34 -59 -6 4 -9 1 -6 -7 3 -8 -4 -22 -14 -31 -11 -9 -19 -20 -19 -25 -1
-17 -66 -112 -73 -106 -4 4 -4 0 0 -10 3 -10 1 -17 -5 -17 -6 0 -10 -3 -9 -7
1 -5 -9 -26 -23 -48 -14 -22 -28 -48 -32 -58 -4 -10 -11 -15 -17 -12 -6 4 -7
-1 -3 -11 4 -11 3 -15 -5 -10 -6 3 -14 1 -18 -5 -4 -8 -3 -9 4 -5 23 14 11
-17 -15 -42 -16 -13 -22 -21 -15 -18 18 10 17 8 -39 -105 -29 -57 -60 -120
-70 -141 -10 -20 -15 -39 -12 -42 4 -3 1 -6 -5 -6 -7 0 -11 -3 -10 -7 3 -13
-25 -83 -34 -83 -4 0 -5 -6 -2 -14 3 -7 -1 -20 -9 -27 -7 -8 -12 -19 -10 -25
2 -7 -3 -18 -11 -27 -8 -8 -12 -17 -9 -20 3 -4 2 -14 -2 -24 -5 -10 -7 -21 -7
-25 1 -5 -3 -8 -8 -8 -5 0 -9 -3 -8 -7 3 -13 -25 -113 -32 -113 -4 0 -7 -6 -7
-14 0 -26 -26 -106 -33 -101 -3 2 -7 -2 -7 -10 0 -8 4 -12 8 -10 4 3 5 -4 2
-15 -3 -11 -9 -18 -13 -15 -4 2 -5 -7 -2 -22 3 -14 1 -24 -4 -20 -5 3 -10 -11
-11 -30 -1 -19 -7 -41 -14 -49 -9 -11 -9 -14 1 -14 10 0 10 -3 0 -15 -7 -8
-10 -15 -7 -15 3 0 1 -15 -5 -32 -5 -18 -11 -50 -13 -71 -2 -22 -9 -45 -16
-53 -9 -11 -9 -14 0 -14 7 0 9 -5 5 -12 -4 -7 -9 -24 -11 -38 -2 -14 -5 -38
-7 -55 -3 -16 -5 -30 -6 -30 -1 0 -4 -29 -6 -65 -3 -35 -11 -71 -17 -79 -10
-12 -9 -13 2 -6 10 6 12 4 6 -5 -8 -12 -17 -161 -18 -282 -1 -37 -4 -55 -11
-51 -6 4 -5 0 1 -8 10 -12 10 -18 0 -29 -6 -7 -7 -10 -2 -7 13 7 12 -103 0
-123 -5 -8 -4 -11 2 -7 6 4 10 -8 10 -28 0 -19 -4 -32 -8 -29 -4 2 -11 0 -14
-6 -4 -6 -1 -9 7 -8 17 4 23 -49 7 -68 -10 -12 -10 -15 1 -12 9 2 14 -13 15
-52 2 -30 6 -73 8 -95 3 -22 8 -67 12 -100 4 -33 12 -90 19 -127 9 -49 10 -71
2 -79 -8 -9 -8 -10 1 -5 9 5 13 -1 13 -18 0 -35 1 -39 11 -57 5 -10 3 -21 -4
-29 -9 -10 -9 -11 0 -6 12 7 15 0 17 -51 1 -10 4 -20 8 -23 4 -4 9 -23 10 -43
2 -20 7 -37 12 -37 4 0 6 -13 4 -29 -3 -18 0 -28 6 -24 5 4 7 0 3 -10 -3 -9
-1 -17 5 -19 6 -2 11 -22 12 -45 0 -23 4 -39 7 -37 3 2 12 -16 19 -39 7 -23
19 -60 27 -82 8 -22 15 -42 15 -45 0 -3 4 -16 9 -29 5 -13 7 -33 4 -45 -4 -14
-3 -17 3 -8 6 9 18 -12 40 -70 17 -46 32 -90 34 -98 2 -8 9 -21 16 -28 7 -8
10 -18 7 -23 -4 -5 -2 -9 4 -9 6 0 14 -12 17 -28 4 -15 24 -60 46 -100 21 -39
35 -72 30 -72 -4 0 -2 -4 4 -8 18 -12 84 -144 77 -155 -3 -6 -2 -7 4 -4 10 6
38 -40 35 -55 -1 -5 2 -8 8 -8 5 0 10 -7 10 -15 0 -8 5 -15 10 -15 6 0 10 -5
10 -11 0 -6 13 -28 29 -48 15 -20 31 -46 35 -58 4 -13 12 -23 17 -23 6 0 7 -4
4 -10 -3 -5 -2 -10 4 -10 5 0 20 -18 32 -40 13 -22 26 -40 31 -40 4 0 8 -5 8
-11 0 -11 32 -55 65 -90 8 -9 15 -19 15 -23 0 -4 9 -16 20 -28 10 -12 16 -26
13 -32 -3 -6 -3 -8 2 -4 9 9 66 -53 59 -64 -3 -4 2 -8 10 -8 9 0 16 -4 16 -10
0 -5 14 -22 30 -37 17 -15 28 -33 26 -40 -3 -7 -1 -12 4 -10 11 3 150 -141
150 -155 0 -6 3 -9 6 -6 3 3 19 -8 36 -24 25 -24 28 -32 17 -40 -11 -7 -9 -8
5 -4 22 8 90 -50 79 -67 -3 -6 -1 -7 4 -4 13 8 36 -17 25 -28 -4 -5 -1 -5 6
-1 6 4 19 0 28 -9 9 -8 31 -27 50 -41 18 -15 31 -30 28 -35 -3 -5 -2 -8 3 -7
15 5 83 -46 79 -58 -3 -6 1 -11 7 -10 7 0 12 -3 12 -9 0 -5 -4 -8 -10 -7 -5 2
-6 0 -2 -4 11 -11 38 -14 31 -3 -10 17 15 9 28 -9 7 -11 23 -24 36 -31 20 -11
21 -15 10 -29 -12 -15 -11 -16 4 -4 19 15 42 7 32 -10 -4 -6 -3 -8 2 -5 13 7
39 -9 39 -24 0 -7 11 -13 24 -14 14 -1 27 -7 29 -13 2 -7 9 -12 16 -12 7 0 21
-8 32 -18 10 -9 31 -23 46 -31 16 -8 28 -18 28 -23 0 -5 5 -6 10 -3 6 3 10 1
10 -5 0 -6 4 -8 10 -5 6 3 10 1 10 -4 0 -6 4 -11 9 -11 18 0 120 -64 115 -72
-3 -4 2 -5 10 -2 9 3 18 0 21 -8 3 -8 12 -15 18 -15 14 0 139 -61 147 -72 3
-3 12 -7 20 -9 31 -7 110 -45 110 -53 0 -5 6 -6 14 -3 17 6 49 -24 40 -38 -4
-7 -2 -8 5 -4 6 4 9 11 6 16 -3 4 4 6 15 3 11 -3 23 -9 26 -14 3 -5 11 -9 18
-9 8 0 31 -8 52 -17 22 -9 48 -18 58 -20 27 -5 47 -23 39 -37 -4 -6 0 -6 9 2
11 9 23 10 39 3 23 -9 59 -23 69 -26 3 -1 22 -5 42 -9 21 -5 35 -12 32 -17 -3
-5 2 -6 10 -3 9 3 16 2 16 -2 0 -5 17 -10 37 -11 20 -1 39 -5 42 -10 3 -4 19
-9 36 -10 42 -3 57 -11 49 -24 -5 -8 -3 -9 7 -3 15 9 68 6 84 -5 6 -4 26 -8
45 -10 43 -4 52 -9 44 -24 -5 -8 -3 -8 7 1 14 13 43 17 36 4 -3 -4 11 -7 31
-8 36 0 147 -16 172 -24 6 -2 48 -5 110 -8 35 -2 42 -5 30 -13 -12 -9 -11 -9
5 -4 11 4 38 6 60 4 78 -7 611 -4 673 4 47 6 68 5 80 -5 9 -7 13 -8 9 -2 -9
15 11 23 55 20 20 -1 35 1 33 5 -4 6 23 9 95 12 19 1 37 5 40 9 3 4 24 9 47
11 23 3 47 8 52 12 6 3 11 0 11 -7 0 -10 2 -10 8 -1 4 6 19 14 32 17 14 2 54
11 91 20 36 9 74 17 85 19 10 2 27 7 36 12 10 4 30 8 45 8 16 1 31 5 34 10 3
4 15 9 27 12 12 2 27 7 32 10 6 3 10 0 10 -7 0 -10 3 -9 10 2 10 17 113 53
103 36 -4 -6 4 -2 16 9 18 15 26 17 40 8 15 -9 18 -9 17 4 -1 16 120 66 142
58 7 -3 11 -1 8 4 -3 5 9 14 27 21 17 7 65 28 105 47 40 18 78 30 84 27 6 -4
8 -3 5 3 -8 12 20 26 33 18 5 -3 12 0 16 6 5 8 2 10 -7 5 -8 -4 -5 0 5 8 24
19 37 20 56 4 12 -11 12 -10 1 4 -12 16 -10 19 10 27 13 5 28 6 33 3 5 -3 6
-1 3 5 -8 12 61 46 75 37 6 -4 8 -2 5 4 -9 13 79 65 95 56 6 -4 8 -3 5 4 -6 9
59 55 106 74 9 4 17 12 17 17 0 5 7 12 16 15 10 4 13 2 8 -7 -4 -6 5 1 19 16
15 15 32 25 37 22 6 -4 9 -1 8 7 -2 7 5 12 15 12 9 -1 17 4 17 12 0 8 4 14 9
14 5 0 16 6 23 12 45 42 100 78 110 72 6 -4 8 -3 4 4 -3 6 10 23 31 39 21 15
42 34 46 40 4 7 15 13 23 13 8 0 12 4 9 10 -3 5 -3 10 2 10 4 0 23 14 42 30
18 17 38 30 43 30 5 0 7 4 4 9 -5 8 16 23 36 25 3 1 10 5 15 10 5 5 2 6 -7 1
-8 -4 1 8 20 28 32 33 59 50 46 29 -3 -5 1 -9 9 -9 10 0 12 4 5 13 -13 15 65
98 82 88 7 -4 8 -2 4 4 -9 14 93 124 107 115 6 -3 7 -1 3 5 -4 6 4 24 18 39
64 72 79 91 108 131 17 23 35 42 40 42 4 0 8 4 8 10 0 17 73 105 84 102 6 -2
8 0 4 3 -9 9 19 65 32 65 6 0 10 4 10 10 0 5 15 31 33 57 19 27 37 56 40 66 4
10 11 15 17 12 5 -3 7 0 4 8 -3 8 2 19 10 26 8 7 25 33 37 57 18 39 23 43 38
32 14 -11 14 -11 3 3 -11 14 -7 28 24 85 21 38 44 77 52 87 8 9 12 17 9 17 -4
0 8 29 27 64 19 36 32 66 30 69 -3 2 2 10 11 17 8 7 15 21 15 31 0 11 4 19 10
19 5 0 9 3 8 8 -3 11 25 82 32 82 4 0 7 6 8 13 3 35 22 87 32 87 4 0 7 6 7 13
-2 21 26 97 35 97 5 0 7 4 4 9 -4 5 -1 22 5 38 7 15 14 39 16 53 2 13 7 27 11
30 4 3 9 16 11 30 1 14 6 27 10 30 3 3 8 21 9 40 2 19 8 36 12 38 5 2 6 10 3
18 -3 8 0 14 7 14 6 0 8 4 5 10 -3 5 -1 29 6 52 6 24 13 50 14 58 2 8 4 15 5
15 3 0 19 85 27 140 3 22 9 41 13 43 4 1 5 14 2 29 -4 20 -2 24 9 18 12 -8 12
-6 0 8 -7 9 -9 17 -4 17 5 0 8 12 7 28 -1 15 1 31 4 36 4 8 13 100 16 164 1
12 3 22 6 22 3 0 5 24 4 53 0 28 2 56 4 61 2 4 4 34 4 65 0 31 5 64 10 75 6
10 6 16 1 13 -11 -7 -10 103 0 121 5 6 4 12 -2 12 -11 0 -8 40 4 60 5 7 4 11
-1 8 -5 -4 -10 30 -12 75 -3 92 -9 192 -17 252 -2 22 -6 66 -9 97 -2 32 -7 62
-11 67 -3 6 -7 35 -8 65 -1 30 -4 52 -7 50 -2 -3 -10 26 -16 63 -7 37 -15 82
-19 98 -4 17 -8 42 -9 58 0 15 -4 27 -8 27 -3 0 -9 19 -13 43 -4 23 -11 50
-17 60 -6 12 -5 17 4 17 9 0 10 3 2 8 -15 10 -46 120 -38 134 4 7 3 8 -4 4 -8
-4 -12 0 -12 11 0 11 -4 23 -8 29 -5 5 -14 29 -21 54 -7 25 -19 60 -27 78 -8
18 -13 36 -9 41 3 5 0 11 -6 13 -7 2 -12 18 -13 35 0 17 -5 31 -11 30 -5 -1
-10 8 -9 20 0 12 -4 19 -9 16 -6 -4 -8 3 -5 15 4 12 2 20 -3 16 -8 -4 -10 1
-9 21 1 3 -6 13 -15 21 -8 9 -13 20 -10 25 4 5 1 9 -4 9 -6 0 -11 6 -11 13 0
7 -9 29 -20 50 -11 21 -17 43 -14 50 4 7 4 9 -1 5 -10 -10 -48 61 -41 78 3 7
0 16 -6 20 -7 4 -8 3 -4 -4 4 -7 5 -12 2 -12 -11 0 -45 83 -39 93 3 6 1 7 -5
3 -11 -7 -38 38 -34 57 1 4 -2 7 -7 7 -17 0 -42 62 -30 76 7 9 6 14 -2 20 -7
4 -9 3 -5 -4 3 -6 2 -13 -3 -17 -14 -8 -32 30 -25 52 4 13 3 14 -3 5 -7 -9
-21 5 -53 54 -24 37 -43 73 -43 81 0 7 -3 11 -5 8 -5 -5 -53 59 -52 70 0 2
-10 15 -23 29 -32 35 -49 55 -81 101 -16 22 -33 42 -38 43 -4 2 -6 8 -2 13 3
5 -2 9 -11 9 -11 0 -15 5 -12 15 4 8 1 17 -5 21 -7 5 -8 2 -3 -7 8 -12 6 -12
-8 0 -9 7 -17 23 -17 35 0 17 -2 18 -10 6 -5 -8 -10 -10 -10 -5 0 12 -59 82
-122 145 -51 51 -58 63 -30 53 9 -3 14 -3 11 1 -4 4 -15 8 -27 11 -11 2 -59
42 -108 89 -48 47 -91 86 -96 86 -4 0 -8 7 -8 15 0 8 -3 14 -7 13 -8 -3 -50
31 -100 79 -13 12 -23 20 -23 18 0 -5 -42 28 -75 60 -11 11 -25 22 -30 24 -6
2 -29 16 -52 32 -31 22 -41 35 -38 50 4 18 2 19 -11 8 -13 -10 -17 -10 -23 0
-5 7 -10 12 -12 11 -7 -4 -79 41 -79 49 0 4 -14 12 -31 18 -20 8 -28 16 -23
24 4 8 3 9 -4 5 -7 -4 -12 -2 -12 5 0 7 -3 9 -6 6 -11 -10 -45 13 -38 25 4 7
3 8 -4 4 -19 -11 -52 12 -46 32 5 13 4 14 -4 4 -8 -11 -17 -10 -53 8 -24 13
-46 25 -49 29 -3 3 -17 12 -33 20 -20 11 -24 17 -15 24 9 6 8 7 -5 3 -21 -7
-49 3 -41 15 3 5 -1 6 -9 3 -8 -3 -23 3 -32 13 -10 10 -20 16 -21 13 -2 -3
-41 13 -88 34 -47 22 -83 43 -81 47 3 4 -4 5 -15 2 -11 -3 -20 -1 -20 4 0 5
-10 9 -22 10 -12 1 -35 12 -51 24 -17 12 -27 17 -23 11 4 -7 -4 -7 -23 1 -17
6 -27 15 -24 21 3 5 1 6 -4 3 -13 -8 -116 26 -107 35 4 4 -2 6 -12 4 -11 -2
-30 1 -44 7 -14 5 -31 11 -38 13 -8 1 -21 6 -30 10 -22 9 -29 11 -48 13 -8 0
-13 4 -11 9 3 4 -13 8 -35 9 -21 1 -46 7 -54 14 -8 6 -14 8 -14 4 0 -5 -10 0
-22 11 -12 10 -18 13 -14 6 5 -8 1 -11 -13 -9 -11 2 -24 6 -27 10 -4 4 -18 7
-31 7 -17 0 -22 4 -17 13 6 9 5 9 -8 0 -8 -7 -17 -11 -19 -8 -5 4 -126 29
-197 40 -23 4 -40 11 -37 15 3 5 0 12 -6 16 -8 4 -9 3 -5 -5 6 -8 -3 -11 -28
-9 -20 1 -36 6 -36 11 0 5 -6 4 -13 -2 -8 -6 -16 -9 -18 -6 -3 2 -34 7 -69 11
-36 3 -70 10 -77 15 -7 7 -14 6 -18 -2 -6 -8 -10 -7 -16 2 -5 8 -9 9 -9 3 0
-8 -11 -9 -32 -4 -21 4 -32 12 -30 21 3 10 -2 9 -16 -4 -23 -21 -33 -22 -26
-2 4 8 3 15 0 15 -3 0 -6 -4 -6 -9z"/>
<path d="M4530 8240 c0 -5 5 -10 11 -10 5 0 7 5 4 10 -3 6 -8 10 -11 10 -2 0
-4 -4 -4 -10z"/>
<path d="M4895 8200 c-3 -5 -1 -10 4 -10 6 0 11 5 11 10 0 6 -2 10 -4 10 -3 0
-8 -4 -11 -10z"/>
<path d="M4995 8180 c-3 -5 -1 -10 4 -10 6 0 11 5 11 10 0 6 -2 10 -4 10 -3 0
-8 -4 -11 -10z"/>
<path d="M5090 8160 c0 -5 5 -10 11 -10 5 0 7 5 4 10 -3 6 -8 10 -11 10 -2 0
-4 -4 -4 -10z"/>
<path d="M5433 8105 c0 -8 4 -12 9 -9 5 3 6 10 3 15 -9 13 -12 11 -12 -6z"/>
<path d="M5735 7960 c-3 -5 -1 -10 4 -10 6 0 11 5 11 10 0 6 -2 10 -4 10 -3 0
-8 -4 -11 -10z"/>
<path d="M2213 7725 c0 -8 4 -12 9 -9 5 3 6 10 3 15 -9 13 -12 11 -12 -6z"/>
<path d="M6215 7731 c-3 -5 -2 -12 3 -15 5 -3 9 1 9 9 0 17 -3 19 -12 6z"/>
<path d="M1946 7578 c3 -5 10 -6 15 -3 13 9 11 12 -6 12 -8 0 -12 -4 -9 -9z"/>
<path d="M1880 7500 c-9 -6 -10 -10 -3 -10 6 0 15 5 18 10 8 12 4 12 -15 0z"/>
<path d="M6576 7478 c3 -5 10 -6 15 -3 13 9 11 12 -6 12 -8 0 -12 -4 -9 -9z"/>
<path d="M6755 7380 c-3 -5 -1 -10 4 -10 6 0 11 5 11 10 0 6 -2 10 -4 10 -3 0
-8 -4 -11 -10z"/>
<path d="M6970 7161 c0 -10 29 -36 34 -30 1 2 -6 12 -16 22 -10 9 -18 13 -18
8z"/>
<path d="M1270 6996 c0 -2 8 -10 18 -17 15 -13 16 -12 3 4 -13 16 -21 21 -21
13z"/>
<path d="M7220 6920 c-9 -6 -10 -10 -3 -10 6 0 15 5 18 10 8 12 4 12 -15 0z"/>
<path d="M1116 6807 c3 -10 9 -15 12 -12 3 3 0 11 -7 18 -10 9 -11 8 -5 -6z"/>
<path d="M1075 6740 c3 -5 8 -10 11 -10 2 0 4 5 4 10 0 6 -5 10 -11 10 -5 0
-7 -4 -4 -10z"/>
<path d="M7559 6508 c-5 -18 -6 -38 -1 -34 7 8 12 36 6 36 -2 0 -4 -1 -5 -2z"/>
<path d="M7595 6400 c3 -5 8 -10 11 -10 2 0 4 5 4 10 0 6 -5 10 -11 10 -5 0
-7 -4 -4 -10z"/>
<path d="M755 6340 c-3 -5 -1 -10 4 -10 6 0 11 5 11 10 0 6 -2 10 -4 10 -3 0
-8 -4 -11 -10z"/>
<path d="M657 6055 c-4 -8 -3 -16 1 -19 4 -3 9 4 9 15 2 23 -3 25 -10 4z"/>
<path d="M7953 5855 c0 -8 4 -12 9 -9 5 3 6 10 3 15 -9 13 -12 11 -12 -6z"/>
<path d="M496 5682 c-3 -5 1 -9 9 -9 8 0 12 4 9 9 -3 4 -7 8 -9 8 -2 0 -6 -4
-9 -8z"/>
<path d="M415 5460 c3 -5 8 -10 11 -10 2 0 4 5 4 10 0 6 -5 10 -11 10 -5 0 -7
-4 -4 -10z"/>
<path d="M387 5379 c7 -7 15 -10 18 -7 3 3 -2 9 -12 12 -14 6 -15 5 -6 -5z"/>
<path d="M8156 5302 c-3 -5 1 -9 9 -9 8 0 12 4 9 9 -3 4 -7 8 -9 8 -2 0 -6 -4
-9 -8z"/>
<path d="M8135 5129 c-4 -6 -5 -12 -2 -15 2 -3 7 2 10 11 7 17 1 20 -8 4z"/>
<path d="M8186 4862 c-3 -5 1 -9 9 -9 8 0 12 4 9 9 -3 4 -7 8 -9 8 -2 0 -6 -4
-9 -8z"/>
<path d="M246 4762 c-3 -5 1 -9 9 -9 8 0 12 4 9 9 -3 4 -7 8 -9 8 -2 0 -6 -4
-9 -8z"/>
<path d="M259 4688 c-5 -18 -6 -38 -1 -34 7 8 12 36 6 36 -2 0 -4 -1 -5 -2z"/>
<path d="M8216 4642 c-3 -5 1 -9 9 -9 8 0 12 4 9 9 -3 4 -7 8 -9 8 -2 0 -6 -4
-9 -8z"/>
<path d="M239 4413 c-13 -16 -12 -17 4 -4 9 7 17 15 17 17 0 8 -8 3 -21 -13z"/>
<path d="M236 4218 c3 -5 10 -6 15 -3 13 9 11 12 -6 12 -8 0 -12 -4 -9 -9z"/>
<path d="M8226 4042 c-3 -5 1 -9 9 -9 8 0 12 4 9 9 -3 4 -7 8 -9 8 -2 0 -6 -4
-9 -8z"/>
<path d="M256 3713 c-6 -14 -5 -15 5 -6 7 7 10 15 7 18 -3 3 -9 -2 -12 -12z"/>
<path d="M275 3640 c-3 -5 -1 -10 4 -10 6 0 11 5 11 10 0 6 -2 10 -4 10 -3 0
-8 -4 -11 -10z"/>
<path d="M8155 3311 c-3 -5 -2 -12 3 -15 5 -3 9 1 9 9 0 17 -3 19 -12 6z"/>
<path d="M320 3180 c-9 -6 -10 -10 -3 -10 6 0 15 5 18 10 8 12 4 12 -15 0z"/>
<path d="M8073 3075 c0 -8 4 -12 9 -9 5 3 6 10 3 15 -9 13 -12 11 -12 -6z"/>
<path d="M416 3042 c-3 -5 1 -9 9 -9 8 0 12 4 9 9 -3 4 -7 8 -9 8 -2 0 -6 -4
-9 -8z"/>
<path d="M433 2965 c0 -8 4 -12 9 -9 5 3 6 10 3 15 -9 13 -12 11 -12 -6z"/>
<path d="M8035 2951 c-3 -5 -2 -12 3 -15 5 -3 9 1 9 9 0 17 -3 19 -12 6z"/>
<path d="M455 2900 c-3 -5 -1 -10 4 -10 6 0 11 5 11 10 0 6 -2 10 -4 10 -3 0
-8 -4 -11 -10z"/>
<path d="M7950 2760 c0 -5 5 -10 11 -10 5 0 7 5 4 10 -3 6 -8 10 -11 10 -2 0
-4 -4 -4 -10z"/>
<path d="M490 2746 c0 -2 7 -7 16 -10 8 -3 12 -2 9 4 -6 10 -25 14 -25 6z"/>
<path d="M526 2678 c3 -5 10 -6 15 -3 13 9 11 12 -6 12 -8 0 -12 -4 -9 -9z"/>
<path d="M555 2629 c-4 -6 -5 -12 -2 -15 2 -3 7 2 10 11 7 17 1 20 -8 4z"/>
<path d="M7866 2538 c3 -5 10 -6 15 -3 13 9 11 12 -6 12 -8 0 -12 -4 -9 -9z"/>
<path d="M696 2362 c-3 -5 1 -9 9 -9 8 0 12 4 9 9 -3 4 -7 8 -9 8 -2 0 -6 -4
-9 -8z"/>
<path d="M735 2280 c3 -5 8 -10 11 -10 2 0 4 5 4 10 0 6 -5 10 -11 10 -5 0 -7
-4 -4 -10z"/>
<path d="M806 2118 c3 -5 10 -6 15 -3 13 9 11 12 -6 12 -8 0 -12 -4 -9 -9z"/>
<path d="M7435 1821 c-3 -5 -2 -12 3 -15 5 -3 9 1 9 9 0 17 -3 19 -12 6z"/>
<path d="M1135 1680 c-3 -5 -1 -10 4 -10 6 0 11 5 11 10 0 6 -2 10 -4 10 -3 0
-8 -4 -11 -10z"/>
<path d="M7336 1682 c-3 -5 1 -9 9 -9 8 0 12 4 9 9 -3 4 -7 8 -9 8 -2 0 -6 -4
-9 -8z"/>
<path d="M1270 1496 c0 -2 8 -10 18 -17 15 -13 16 -12 3 4 -13 16 -21 21 -21
13z"/>
<path d="M1376 1393 c-6 -14 -5 -15 5 -6 7 7 10 15 7 18 -3 3 -9 -2 -12 -12z"/>
<path d="M1420 1360 c8 -5 20 -10 25 -10 6 0 3 5 -5 10 -8 5 -19 10 -25 10 -5
0 -3 -5 5 -10z"/>
<path d="M1513 1295 c0 -8 4 -12 9 -9 5 3 6 10 3 15 -9 13 -12 11 -12 -6z"/>
<path d="M1595 1189 c-4 -6 -5 -12 -2 -15 2 -3 7 2 10 11 7 17 1 20 -8 4z"/>
<path d="M6736 1078 c3 -5 10 -6 15 -3 13 9 11 12 -6 12 -8 0 -12 -4 -9 -9z"/>
<path d="M1755 1071 c-3 -5 -2 -12 3 -15 5 -3 9 1 9 9 0 17 -3 19 -12 6z"/>
<path d="M6679 993 c-13 -16 -12 -17 4 -4 16 13 21 21 13 21 -2 0 -10 -8 -17
-17z"/>
<path d="M6650 956 c0 -2 8 -10 18 -17 15 -13 16 -12 3 4 -13 16 -21 21 -21
13z"/>
<path d="M2040 840 c-8 -5 -10 -10 -5 -10 6 0 17 5 25 10 8 5 11 10 5 10 -5 0
-17 -5 -25 -10z"/>
<path d="M2413 645 c0 -8 4 -12 9 -9 5 3 6 10 3 15 -9 13 -12 11 -12 -6z"/>
<path d="M5953 575 c0 -8 4 -12 9 -9 5 3 6 10 3 15 -9 13 -12 11 -12 -6z"/>
<path d="M5893 563 c4 -3 -1 -16 -10 -27 -18 -21 -18 -21 4 -2 20 16 23 36 6
36 -4 0 -3 -3 0 -7z"/>
<path d="M2774 482 c4 -3 14 -7 22 -8 9 -1 13 0 10 4 -4 3 -14 7 -22 8 -9 1
-13 0 -10 -4z"/>
<path d="M5696 482 c-3 -5 1 -9 9 -9 8 0 12 4 9 9 -3 4 -7 8 -9 8 -2 0 -6 -4
-9 -8z"/>
<path d="M3076 347 c3 -10 9 -15 12 -12 3 3 0 11 -7 18 -10 9 -11 8 -5 -6z"/>
<path d="M3573 265 c0 -8 4 -12 9 -9 5 3 6 10 3 15 -9 13 -12 11 -12 -6z"/>
<path d="M3660 240 c8 -5 20 -10 25 -10 6 0 3 5 -5 10 -8 5 -19 10 -25 10 -5
0 -3 -5 5 -10z"/>
<path d="M3750 246 c0 -2 9 -6 20 -9 11 -3 18 -1 14 4 -5 9 -34 13 -34 5z"/>
<path d="M4810 240 c0 -5 5 -10 11 -10 5 0 7 5 4 10 -3 6 -8 10 -11 10 -2 0
-4 -4 -4 -10z"/>
<path d="M4610 219 c0 -5 5 -7 10 -4 6 3 10 8 10 11 0 2 -4 4 -10 4 -5 0 -10
-5 -10 -11z"/>
<path d="M4135 211 c-3 -5 -2 -12 3 -15 5 -3 9 1 9 9 0 17 -3 19 -12 6z"/>
<path d="M4330 205 c0 -7 30 -13 34 -7 3 4 -4 9 -15 9 -10 1 -19 0 -19 -2z"/>
</g>
</svg>
